<?xml version="1.0" encoding="UTF-8" standalone="no"?>
<svg
   viewBox="0 0 793.7007874015749 1122.5196850393702"
   width="793.7007874015749"
   height="1122.5196850393702"
   version="1.1"
   id="svg75"
   sodipodi:docname="webcam_mount.svg"
   inkscape:version="1.4.2 (ebf0e940, 2025-05-08)"
   xmlns:inkscape="http://www.inkscape.org/namespaces/inkscape"
   xmlns:sodipodi="http://sodipodi.sourceforge.net/DTD/sodipodi-0.dtd"
   xmlns="http://www.w3.org/2000/svg"
   xmlns:svg="http://www.w3.org/2000/svg">
  <sodipodi:namedview
     id="namedview75"
     pagecolor="#ffffff"
     bordercolor="#000000"
     borderopacity="0.25"
     inkscape:showpageshadow="2"
     inkscape:pageopacity="0.0"
     inkscape:pagecheckerboard="0"
     inkscape:deskcolor="#d1d1d1"
     inkscape:zoom="0.81597145"
     inkscape:cx="153.19163"
     inkscape:cy="288.61304"
     inkscape:window-width="1680"
     inkscape:window-height="1022"
     inkscape:window-x="0"
     inkscape:window-y="0"
     inkscape:window-maximized="1"
     inkscape:current-layer="g67" />
  <desc
     id="desc1">Part Studio 1 - Sketch 1.dxf - scale = 1.000000, origin = (0.000000, 0.000000), method = manual</desc>
  <defs
     id="defs4">
    <marker
       id="DistanceX"
       orient="auto"
       refX="0.0"
       refY="0.0"
       style="overflow:visible">
      <path
         d="M 3,-3 L -3,3 M 0,-5 L  0,5"
         style="stroke:#000000; stroke-width:0.5"
         id="path1" />
    </marker>
    <pattern
       id="Hatch"
       patternUnits="userSpaceOnUse"
       width="8"
       height="8"
       x="0"
       y="0">
      <path
         d="M8 4 l-4,4"
         stroke="#000000"
         stroke-width="0.25"
         linecap="square"
         id="path2" />
      <path
         d="M6 2 l-4,4"
         stroke="#000000"
         stroke-width="0.25"
         linecap="square"
         id="path3" />
      <path
         d="M4 0 l-4,4"
         stroke="#000000"
         stroke-width="0.25"
         linecap="square"
         id="path4" />
    </pattern>
    <symbol
       id="*MODEL_SPACE" />
    <symbol
       id="*PAPER_SPACE" />
  </defs>
  <g
     inkscape:groupmode="layer"
     inkscape:label="0"
     id="g4" />
  <g
     inkscape:groupmode="layer"
     inkscape:label="SECTION_CUTTING_LINE"
     id="g5" />
  <g
     inkscape:groupmode="layer"
     inkscape:label="DETAIL_VIEW_BORDER"
     id="g6" />
  <g
     inkscape:groupmode="layer"
     inkscape:label="DETAIL_VIEW_PARENT_BORDER"
     id="g7" />
  <g
     inkscape:groupmode="layer"
     inkscape:label="TEXT"
     id="g8" />
  <g
     inkscape:groupmode="layer"
     inkscape:label="SKETCHED_GEOMETRY"
     id="g9" />
  <g
     inkscape:groupmode="layer"
     inkscape:label="VIRTUAL_SHARPS"
     id="g10" />
  <g
     inkscape:groupmode="layer"
     inkscape:label="CENTERLINES"
     id="g11" />
  <g
     inkscape:groupmode="layer"
     inkscape:label="CENTERMARKS"
     id="g12" />
  <g
     inkscape:groupmode="layer"
     inkscape:label="TABLES"
     id="g13" />
  <g
     inkscape:groupmode="layer"
     inkscape:label="IMAGES"
     id="g14" />
  <g
     inkscape:groupmode="layer"
     inkscape:label="ANNOTATION_LINES"
     id="g15" />
  <g
     inkscape:groupmode="layer"
     inkscape:label="ANNOTATION_TEXT"
     id="g16" />
  <g
     inkscape:groupmode="layer"
     inkscape:label="SIDE_THREAD_SYMBOLS"
     id="g17" />
  <g
     inkscape:groupmode="layer"
     inkscape:label="SIDE_THREAD_SYMBOLS_HIDDEN"
     id="g18" />
  <g
     inkscape:groupmode="layer"
     inkscape:label="SURFACE_THREAD_SYMBOLS"
     id="g19" />
  <g
     inkscape:groupmode="layer"
     inkscape:label="SURFACE_THREAD_SYMBOLS_ON_"
     id="g20" />
  <g
     inkscape:groupmode="layer"
     inkscape:label="SURFACE_THREAD_SYMBOLS_HID"
     id="g21" />
  <g
     inkscape:groupmode="layer"
     inkscape:label="BLIND_THREAD_SYMBOLS"
     id="g22" />
  <g
     inkscape:groupmode="layer"
     inkscape:label="BLIND_THREAD_SYMBOLS_HIDDE"
     id="g23" />
  <g
     inkscape:groupmode="layer"
     inkscape:label="EXPLODE_LINES"
     id="g24" />
  <g
     inkscape:groupmode="layer"
     inkscape:label="HIDDEN_EXPLODE_LINES"
     id="g25" />
  <g
     inkscape:groupmode="layer"
     inkscape:label="BREAK_LINES"
     id="g26" />
  <g
     inkscape:groupmode="layer"
     inkscape:label="SHEETMETAL_BEND_LINES_UP"
     id="g27" />
  <g
     inkscape:groupmode="layer"
     inkscape:label="SHEETMETAL_BEND_LINES_DOWN"
     id="g28" />
  <g
     inkscape:groupmode="layer"
     inkscape:label="SHEETMETAL_BEND_TANGENT_LI"
     id="g29" />
  <g
     inkscape:groupmode="layer"
     inkscape:label="SHEETMETAL_CUT_LINES"
     id="g30" />
  <g
     inkscape:groupmode="layer"
     inkscape:label="SHEETMETAL_CBORE_CSINK_UP"
     id="g31" />
  <g
     inkscape:groupmode="layer"
     inkscape:label="SHEETMETAL_CBORE_CSINK_DOW"
     id="g32" />
  <g
     inkscape:groupmode="layer"
     inkscape:label="SHEETMETAL_CBORE_CSINK_UP_"
     id="g33" />
  <g
     inkscape:groupmode="layer"
     inkscape:label="SHEETMETAL_CBORE_CSINK_DO0"
     id="g34" />
  <g
     inkscape:groupmode="layer"
     inkscape:label="SHEETMETAL_FORM_TEAR"
     id="g35" />
  <g
     inkscape:groupmode="layer"
     inkscape:label="SHEETMETAL_FORM_UP"
     id="g36" />
  <g
     inkscape:groupmode="layer"
     inkscape:label="SHEETMETAL_FORM_DOWN"
     id="g37" />
  <g
     inkscape:groupmode="layer"
     inkscape:label="SHEETMETAL_FORM_CENTERMARK"
     id="g38" />
  <g
     inkscape:groupmode="layer"
     inkscape:label="REGION_ASSOC_POINTS"
     id="g39" />
  <g
     inkscape:groupmode="layer"
     inkscape:label="PATTERN_CENTERLINES"
     id="g40" />
  <g
     inkscape:groupmode="layer"
     inkscape:label="HIDDEN"
     id="g41" />
  <g
     inkscape:groupmode="layer"
     inkscape:label="VISIBLE"
     id="g42" />
  <g
     inkscape:groupmode="layer"
     inkscape:label="MODELSKETCH_VISIBLE"
     id="g67">
    <g
       id="g77"
       transform="translate(55.148993,-866.45188)">
      <path
         d="m 0,1277.4803 a 18.897638,18.897638 0 0 0 18.897638,18.8977"
         style="fill:none;stroke:#000000"
         id="path43" />
      <path
         d="M 18.897638,1126.2992 A 18.897638,18.897638 0 0 0 0,1145.1969"
         style="fill:none;stroke:#000000"
         id="path45" />
      <path
         style="fill:none;stroke:#000000"
         d="m 234.331,1145.2 v 132.28"
         id="path47" />
      <path
         style="fill:none;stroke:#000000"
         d="m 0,1145.2 v 132.28"
         id="path49" />
      <path
         style="fill:none;stroke:#000000"
         d="M 18.8976,1296.38 H 215.433"
         id="path51" />
      <path
         d="m 234.33071,1145.1969 a 18.897638,18.897638 0 0 0 -18.89764,-18.8977"
         style="fill:none;stroke:#000000"
         id="path53" />
      <path
         d="m 215.43307,1296.378 a 18.897638,18.897638 0 0 0 18.89764,-18.8977"
         style="fill:none;stroke:#000000"
         id="path55" />
      <path
         style="fill:none;stroke:#000000"
         d="M 18.8976,1126.3 H 215.433"
         id="path57" />
      <path
         d="m 224.88189,1211.3386 a 9.44882,9.44882 0 0 0 -18.89764,0 9.44882,9.44882 0 0 0 18.89764,0 z"
         style="fill:none;stroke:#000000"
         id="path58" />
      <path
         d="m 28.346457,1211.3386 a 9.448819,9.448819 0 0 0 -18.897638,0 9.448819,9.448819 0 0 0 18.897638,0 z"
         style="fill:none;stroke:#000000"
         id="path61" />
    </g>
    <g
       id="g76"
       transform="translate(51.47239,-877.48168)">
      <path
         d="M 234.33071,971.33858 A 18.897638,18.897638 0 0 0 215.43307,952.44095"
         style="fill:none;stroke:#000000"
         id="path42" />
      <path
         d="m 177.63779,1084.7244 a 18.897638,18.897638 0 0 0 18.89764,-18.8976"
         style="fill:none;stroke:#000000"
         id="path44" />
      <path
         d="m 37.795276,1065.8268 a 18.897638,18.897638 0 0 0 18.897637,18.8976"
         style="fill:none;stroke:#000000"
         id="path46" />
      <path
         d="m 0,1103.622 a 18.897638,18.897638 0 0 0 18.897638,18.8977"
         style="fill:none;stroke:#000000"
         id="path48" />
      <path
         d="M 18.897638,952.44095 A 18.897638,18.897638 0 0 0 0,971.33858"
         style="fill:none;stroke:#000000"
         id="path50" />
      <path
         style="fill:none;stroke:#000000"
         d="M 18.8976,1122.52 H 215.433"
         id="path52" />
      <path
         style="fill:none;stroke:#000000"
         d="m 37.7953,971.339 v 94.491"
         id="path54" />
      <path
         style="fill:none;stroke:#000000"
         d="m 196.535,971.339 v 94.491"
         id="path56" />
      <path
         style="fill:none;stroke:#000000"
         d="M 56.6929,1084.72 H 177.638"
         id="path59" />
      <path
         d="m 215.43307,952.44095 a 18.897638,18.897638 0 0 0 -18.89764,18.89763"
         style="fill:none;stroke:#000000"
         id="path60" />
      <path
         d="m 215.43307,1122.5197 a 18.897638,18.897638 0 0 0 18.89764,-18.8977"
         style="fill:none;stroke:#000000"
         id="path62" />
      <path
         style="fill:none;stroke:#000000"
         d="M 234.331,971.339 V 1103.62"
         id="path63" />
      <path
         d="m 28.346457,1037.4803 a 9.448819,9.448819 0 0 0 -18.897638,0 9.448819,9.448819 0 0 0 18.897638,0 z"
         style="fill:none;stroke:#000000"
         id="path64" />
      <path
         style="fill:none;stroke:#000000"
         d="M 0,971.339 V 1103.62"
         id="path65" />
      <path
         d="m 224.88189,1037.4803 a 9.44882,9.44882 0 0 0 -18.89764,0 9.44882,9.44882 0 0 0 18.89764,0 z"
         style="fill:none;stroke:#000000"
         id="path66" />
      <path
         d="M 37.795276,971.33858 A 18.897638,18.897638 0 0 0 18.897638,952.44095"
         style="fill:none;stroke:#000000"
         id="path67" />
    </g>
    <g
       id="g76-9"
       transform="rotate(180,165.20705,577.32916)">
      <path
         d="M 234.33071,971.33858 A 18.897638,18.897638 0 0 0 215.43307,952.44095"
         style="fill:none;stroke:#000000"
         id="path42-3" />
      <path
         d="m 177.63779,1084.7244 a 18.897638,18.897638 0 0 0 18.89764,-18.8976"
         style="fill:none;stroke:#000000"
         id="path44-8" />
      <path
         d="m 37.795276,1065.8268 a 18.897638,18.897638 0 0 0 18.897637,18.8976"
         style="fill:none;stroke:#000000"
         id="path46-0" />
      <path
         d="m 0,1103.622 a 18.897638,18.897638 0 0 0 18.897638,18.8977"
         style="fill:none;stroke:#000000"
         id="path48-2" />
      <path
         d="M 18.897638,952.44095 A 18.897638,18.897638 0 0 0 0,971.33858"
         style="fill:none;stroke:#000000"
         id="path50-4" />
      <path
         style="fill:none;stroke:#000000"
         d="M 18.8976,1122.52 H 215.433"
         id="path52-8" />
      <path
         style="fill:none;stroke:#000000"
         d="m 37.7953,971.339 v 94.491"
         id="path54-3" />
      <path
         style="fill:none;stroke:#000000"
         d="m 196.535,971.339 v 94.491"
         id="path56-9" />
      <path
         style="fill:none;stroke:#000000"
         d="M 56.6929,1084.72 H 177.638"
         id="path59-0" />
      <path
         d="m 215.43307,952.44095 a 18.897638,18.897638 0 0 0 -18.89764,18.89763"
         style="fill:none;stroke:#000000"
         id="path60-5" />
      <path
         d="m 215.43307,1122.5197 a 18.897638,18.897638 0 0 0 18.89764,-18.8977"
         style="fill:none;stroke:#000000"
         id="path62-2" />
      <path
         style="fill:none;stroke:#000000"
         d="M 234.331,971.339 V 1103.62"
         id="path63-2" />
      <path
         d="m 28.346457,1037.4803 a 9.448819,9.448819 0 0 0 -18.897638,0 9.448819,9.448819 0 0 0 18.897638,0 z"
         style="fill:none;stroke:#000000"
         id="path64-7" />
      <path
         style="fill:none;stroke:#000000"
         d="M 0,971.339 V 1103.62"
         id="path65-3" />
      <path
         d="m 224.88189,1037.4803 a 9.44882,9.44882 0 0 0 -18.89764,0 9.44882,9.44882 0 0 0 18.89764,0 z"
         style="fill:none;stroke:#000000"
         id="path66-7" />
      <path
         d="M 37.795276,971.33858 A 18.897638,18.897638 0 0 0 18.897638,952.44095"
         style="fill:none;stroke:#000000"
         id="path67-9" />
    </g>
  </g>
  <g
     inkscape:groupmode="layer"
     inkscape:label="MODELSKETCH_POINT"
     id="g68" />
  <g
     inkscape:groupmode="layer"
     inkscape:label="MODELSKETCH_CONSTRUCTION"
     id="g69" />
  <g
     inkscape:groupmode="layer"
     inkscape:label="HIDDEN_BASE_VIEW"
     id="g70" />
  <g
     inkscape:groupmode="layer"
     inkscape:label="TANGENT_LINES"
     id="g71" />
  <g
     inkscape:groupmode="layer"
     inkscape:label="TANGENT_HIDDEN"
     id="g72" />
  <g
     inkscape:groupmode="layer"
     inkscape:label="INVISIBLE_LINES"
     id="g73" />
  <g
     inkscape:groupmode="layer"
     inkscape:label="VIEW_HATCHES"
     id="g74" />
  <g
     inkscape:groupmode="layer"
     inkscape:label="SECTION_JOG_LINES"
     id="g75" />
</svg>
