<svg viewBox="0 0 700 700" xmlns="http://www.w3.org/2000/svg">
<path d="M0,0 L50,109 z" fill="true" fill-opacity="0.5" stroke="red" stroke-width="0.1"/>
<path d="M50,109 L43,109 z" fill="true" fill-opacity="0.1" stroke="green" stroke-width="0.1"/>
<path d="M43,109 L43,112 z" fill="true" fill-opacity="0" stroke="green" stroke-width="0.1"/>
<path d="M43,112 L37,112 z" fill="true" fill-opacity="0" stroke="green" stroke-width="0.1"/>
<path d="M37,112 L37,109 z" fill="true" fill-opacity="0" stroke="green" stroke-width="0.1"/>
<path d="M37,109 L31,109 z" fill="true" fill-opacity="0" stroke="green" stroke-width="0.1"/>
<path d="M31,109 L31,112 z" fill="true" fill-opacity="0" stroke="green" stroke-width="0.1"/>
<path d="M31,112 L25,112 z" fill="true" fill-opacity="0" stroke="green" stroke-width="0.1"/>
<path d="M25,112 L25,109 z" fill="true" fill-opacity="0" stroke="green" stroke-width="0.1"/>
<path d="M25,109 L19,109 z" fill="true" fill-opacity="0" stroke="green" stroke-width="0.1"/>
<path d="M19,109 L19,112 z" fill="true" fill-opacity="0" stroke="green" stroke-width="0.1"/>
<path d="M19,112 L13,112 z" fill="true" fill-opacity="0" stroke="green" stroke-width="0.1"/>
<path d="M13,112 L13,109 z" fill="true" fill-opacity="0" stroke="green" stroke-width="0.1"/>
<path d="M13,109 L6,109 z" fill="true" fill-opacity="0" stroke="green" stroke-width="0.1"/>
<path d="M6,109 L6,112 z" fill="true" fill-opacity="0" stroke="green" stroke-width="0.1"/>
<path d="M6,112 L6,119 z" fill="true" fill-opacity="0" stroke="green" stroke-width="0.1"/>
<path d="M6,119 L3,119 z" fill="true" fill-opacity="0" stroke="green" stroke-width="0.1"/>
<path d="M3,119 L3,125 z" fill="true" fill-opacity="0" stroke="green" stroke-width="0.1"/>
<path d="M3,125 L6,125 z" fill="true" fill-opacity="0" stroke="green" stroke-width="0.1"/>
<path d="M6,125 L6,131 z" fill="true" fill-opacity="0" stroke="green" stroke-width="0.1"/>
<path d="M6,131 L3,131 z" fill="true" fill-opacity="0" stroke="green" stroke-width="0.1"/>
<path d="M3,131 L3,137 z" fill="true" fill-opacity="0" stroke="green" stroke-width="0.1"/>
<path d="M3,137 L6,137 z" fill="true" fill-opacity="0" stroke="green" stroke-width="0.1"/>
<path d="M6,137 L6,143 z" fill="true" fill-opacity="0" stroke="green" stroke-width="0.1"/>
<path d="M6,143 L3,143 z" fill="true" fill-opacity="0" stroke="green" stroke-width="0.1"/>
<path d="M3,143 L3,149 z" fill="true" fill-opacity="0" stroke="green" stroke-width="0.1"/>
<path d="M3,149 L6,149 z" fill="true" fill-opacity="0" stroke="green" stroke-width="0.1"/>
<path d="M6,149 L6,156 z" fill="true" fill-opacity="0" stroke="green" stroke-width="0.1"/>
<path d="M6,156 L6,159 z" fill="true" fill-opacity="0" stroke="green" stroke-width="0.1"/>
<path d="M6,159 L13,159 z" fill="true" fill-opacity="0" stroke="green" stroke-width="0.1"/>
<path d="M13,159 L13,156 z" fill="true" fill-opacity="0" stroke="green" stroke-width="0.1"/>
<path d="M13,156 L19,156 z" fill="true" fill-opacity="0" stroke="green" stroke-width="0.1"/>
<path d="M19,156 L19,159 z" fill="true" fill-opacity="0" stroke="green" stroke-width="0.1"/>
<path d="M19,159 L25,159 z" fill="true" fill-opacity="0" stroke="green" stroke-width="0.1"/>
<path d="M25,159 L25,156 z" fill="true" fill-opacity="0" stroke="green" stroke-width="0.1"/>
<path d="M25,156 L31,156 z" fill="true" fill-opacity="0" stroke="green" stroke-width="0.1"/>
<path d="M31,156 L31,159 z" fill="true" fill-opacity="0" stroke="green" stroke-width="0.1"/>
<path d="M31,159 L37,159 z" fill="true" fill-opacity="0" stroke="green" stroke-width="0.1"/>
<path d="M37,159 L37,156 z" fill="true" fill-opacity="0" stroke="green" stroke-width="0.1"/>
<path d="M37,156 L43,156 z" fill="true" fill-opacity="0" stroke="green" stroke-width="0.1"/>
<path d="M43,156 L43,159 z" fill="true" fill-opacity="0" stroke="green" stroke-width="0.1"/>
<path d="M43,159 L50,159 z" fill="true" fill-opacity="0" stroke="green" stroke-width="0.1"/>
<path d="M50,159 L50,156 z" fill="true" fill-opacity="0" stroke="green" stroke-width="0.1"/>
<path d="M50,156 L50,149 z" fill="true" fill-opacity="0" stroke="green" stroke-width="0.1"/>
<path d="M50,149 L53,149 z" fill="true" fill-opacity="0" stroke="green" stroke-width="0.1"/>
<path d="M53,149 L53,143 z" fill="true" fill-opacity="0" stroke="green" stroke-width="0.1"/>
<path d="M53,143 L50,143 z" fill="true" fill-opacity="0" stroke="green" stroke-width="0.1"/>
<path d="M50,143 L50,137 z" fill="true" fill-opacity="0" stroke="green" stroke-width="0.1"/>
<path d="M50,137 L53,137 z" fill="true" fill-opacity="0" stroke="green" stroke-width="0.1"/>
<path d="M53,137 L53,131 z" fill="true" fill-opacity="0" stroke="green" stroke-width="0.1"/>
<path d="M53,131 L50,131 z" fill="true" fill-opacity="0" stroke="green" stroke-width="0.1"/>
<path d="M50,131 L50,125 z" fill="true" fill-opacity="0" stroke="green" stroke-width="0.1"/>
<path d="M50,125 L53,125 z" fill="true" fill-opacity="0" stroke="green" stroke-width="0.1"/>
<path d="M53,125 L53,119 z" fill="true" fill-opacity="0" stroke="green" stroke-width="0.1"/>
<path d="M53,119 L50,119 z" fill="true" fill-opacity="0" stroke="green" stroke-width="0.1"/>
<path d="M50,119 L50,112 z" fill="true" fill-opacity="0" stroke="green" stroke-width="0.1"/>
<path d="M50,112 L50,109 z" fill="true" fill-opacity="0" stroke="green" stroke-width="0.1"/>
<path d="M50,109 L103,109 z" fill="true" fill-opacity="0.5" stroke="red" stroke-width="0.1"/>
<path d="M103,109 L96,109 z" fill="true" fill-opacity="0" stroke="green" stroke-width="0.1"/>
<path d="M96,109 L96,112 z" fill="true" fill-opacity="0" stroke="green" stroke-width="0.1"/>
<path d="M96,112 L90,112 z" fill="true" fill-opacity="0" stroke="green" stroke-width="0.1"/>
<path d="M90,112 L90,109 z" fill="true" fill-opacity="0" stroke="green" stroke-width="0.1"/>
<path d="M90,109 L84,109 z" fill="true" fill-opacity="0" stroke="green" stroke-width="0.1"/>
<path d="M84,109 L84,112 z" fill="true" fill-opacity="0" stroke="green" stroke-width="0.1"/>
<path d="M84,112 L78,112 z" fill="true" fill-opacity="0" stroke="green" stroke-width="0.1"/>
<path d="M78,112 L78,109 z" fill="true" fill-opacity="0" stroke="green" stroke-width="0.1"/>
<path d="M78,109 L72,109 z" fill="true" fill-opacity="0" stroke="green" stroke-width="0.1"/>
<path d="M72,109 L72,112 z" fill="true" fill-opacity="0" stroke="green" stroke-width="0.1"/>
<path d="M72,112 L66,112 z" fill="true" fill-opacity="0" stroke="green" stroke-width="0.1"/>
<path d="M66,112 L66,109 z" fill="true" fill-opacity="0" stroke="green" stroke-width="0.1"/>
<path d="M66,109 L59,109 z" fill="true" fill-opacity="0" stroke="green" stroke-width="0.1"/>
<path d="M59,109 L59,112 z" fill="true" fill-opacity="0" stroke="green" stroke-width="0.1"/>
<path d="M59,112 L59,119 z" fill="true" fill-opacity="0" stroke="green" stroke-width="0.1"/>
<path d="M59,119 L56,119 z" fill="true" fill-opacity="0" stroke="green" stroke-width="0.1"/>
<path d="M56,119 L56,125 z" fill="true" fill-opacity="0" stroke="green" stroke-width="0.1"/>
<path d="M56,125 L59,125 z" fill="true" fill-opacity="0" stroke="green" stroke-width="0.1"/>
<path d="M59,125 L59,131 z" fill="true" fill-opacity="0" stroke="green" stroke-width="0.1"/>
<path d="M59,131 L56,131 z" fill="true" fill-opacity="0" stroke="green" stroke-width="0.1"/>
<path d="M56,131 L56,137 z" fill="true" fill-opacity="0" stroke="green" stroke-width="0.1"/>
<path d="M56,137 L59,137 z" fill="true" fill-opacity="0" stroke="green" stroke-width="0.1"/>
<path d="M59,137 L59,143 z" fill="true" fill-opacity="0" stroke="green" stroke-width="0.1"/>
<path d="M59,143 L56,143 z" fill="true" fill-opacity="0" stroke="green" stroke-width="0.1"/>
<path d="M56,143 L56,149 z" fill="true" fill-opacity="0" stroke="green" stroke-width="0.1"/>
<path d="M56,149 L59,149 z" fill="true" fill-opacity="0" stroke="green" stroke-width="0.1"/>
<path d="M59,149 L59,156 z" fill="true" fill-opacity="0" stroke="green" stroke-width="0.1"/>
<path d="M59,156 L59,159 z" fill="true" fill-opacity="0" stroke="green" stroke-width="0.1"/>
<path d="M59,159 L66,159 z" fill="true" fill-opacity="0" stroke="green" stroke-width="0.1"/>
<path d="M66,159 L66,156 z" fill="true" fill-opacity="0" stroke="green" stroke-width="0.1"/>
<path d="M66,156 L72,156 z" fill="true" fill-opacity="0" stroke="green" stroke-width="0.1"/>
<path d="M72,156 L72,159 z" fill="true" fill-opacity="0" stroke="green" stroke-width="0.1"/>
<path d="M72,159 L78,159 z" fill="true" fill-opacity="0" stroke="green" stroke-width="0.1"/>
<path d="M78,159 L78,156 z" fill="true" fill-opacity="0" stroke="green" stroke-width="0.1"/>
<path d="M78,156 L84,156 z" fill="true" fill-opacity="0" stroke="green" stroke-width="0.1"/>
<path d="M84,156 L84,159 z" fill="true" fill-opacity="0" stroke="green" stroke-width="0.1"/>
<path d="M84,159 L90,159 z" fill="true" fill-opacity="0" stroke="green" stroke-width="0.1"/>
<path d="M90,159 L90,156 z" fill="true" fill-opacity="0" stroke="green" stroke-width="0.1"/>
<path d="M90,156 L96,156 z" fill="true" fill-opacity="0" stroke="green" stroke-width="0.1"/>
<path d="M96,156 L96,159 z" fill="true" fill-opacity="0" stroke="green" stroke-width="0.1"/>
<path d="M96,159 L103,159 z" fill="true" fill-opacity="0" stroke="green" stroke-width="0.1"/>
<path d="M103,159 L103,156 z" fill="true" fill-opacity="0" stroke="green" stroke-width="0.1"/>
<path d="M103,156 L103,149 z" fill="true" fill-opacity="0" stroke="green" stroke-width="0.1"/>
<path d="M103,149 L106,149 z" fill="true" fill-opacity="0" stroke="green" stroke-width="0.1"/>
<path d="M106,149 L106,143 z" fill="true" fill-opacity="0" stroke="green" stroke-width="0.1"/>
<path d="M106,143 L103,143 z" fill="true" fill-opacity="0" stroke="green" stroke-width="0.1"/>
<path d="M103,143 L103,137 z" fill="true" fill-opacity="0" stroke="green" stroke-width="0.1"/>
<path d="M103,137 L106,137 z" fill="true" fill-opacity="0" stroke="green" stroke-width="0.1"/>
<path d="M106,137 L106,131 z" fill="true" fill-opacity="0" stroke="green" stroke-width="0.1"/>
<path d="M106,131 L103,131 z" fill="true" fill-opacity="0" stroke="green" stroke-width="0.1"/>
<path d="M103,131 L103,125 z" fill="true" fill-opacity="0" stroke="green" stroke-width="0.1"/>
<path d="M103,125 L106,125 z" fill="true" fill-opacity="0" stroke="green" stroke-width="0.1"/>
<path d="M106,125 L106,119 z" fill="true" fill-opacity="0" stroke="green" stroke-width="0.1"/>
<path d="M106,119 L103,119 z" fill="true" fill-opacity="0" stroke="green" stroke-width="0.1"/>
<path d="M103,119 L103,112 z" fill="true" fill-opacity="0" stroke="green" stroke-width="0.1"/>
<path d="M103,112 L103,109 z" fill="true" fill-opacity="0" stroke="green" stroke-width="0.1"/>
<path d="M103,109 L53,56 z" fill="true" fill-opacity="0.5" stroke="red" stroke-width="0.1"/>
<path d="M53,56 L50,56 z" fill="true" fill-opacity="0" stroke="green" stroke-width="0.1"/>
<path d="M50,56 L43,56 z" fill="true" fill-opacity="0" stroke="green" stroke-width="0.1"/>
<path d="M43,56 L43,59 z" fill="true" fill-opacity="0" stroke="green" stroke-width="0.1"/>
<path d="M43,59 L37,59 z" fill="true" fill-opacity="0" stroke="green" stroke-width="0.1"/>
<path d="M37,59 L37,56 z" fill="true" fill-opacity="0" stroke="green" stroke-width="0.1"/>
<path d="M37,56 L31,56 z" fill="true" fill-opacity="0" stroke="green" stroke-width="0.1"/>
<path d="M31,56 L31,59 z" fill="true" fill-opacity="0" stroke="green" stroke-width="0.1"/>
<path d="M31,59 L25,59 z" fill="true" fill-opacity="0" stroke="green" stroke-width="0.1"/>
<path d="M25,59 L25,56 z" fill="true" fill-opacity="0" stroke="green" stroke-width="0.1"/>
<path d="M25,56 L19,56 z" fill="true" fill-opacity="0" stroke="green" stroke-width="0.1"/>
<path d="M19,56 L19,59 z" fill="true" fill-opacity="0" stroke="green" stroke-width="0.1"/>
<path d="M19,59 L13,59 z" fill="true" fill-opacity="0" stroke="green" stroke-width="0.1"/>
<path d="M13,59 L13,56 z" fill="true" fill-opacity="0" stroke="green" stroke-width="0.1"/>
<path d="M13,56 L6,56 z" fill="true" fill-opacity="0" stroke="green" stroke-width="0.1"/>
<path d="M6,56 L3,56 z" fill="true" fill-opacity="0" stroke="green" stroke-width="0.1"/>
<path d="M3,56 L3,59 z" fill="true" fill-opacity="0" stroke="green" stroke-width="0.1"/>
<path d="M3,59 L3,66 z" fill="true" fill-opacity="0" stroke="green" stroke-width="0.1"/>
<path d="M3,66 L6,66 z" fill="true" fill-opacity="0" stroke="green" stroke-width="0.1"/>
<path d="M6,66 L6,72 z" fill="true" fill-opacity="0" stroke="green" stroke-width="0.1"/>
<path d="M6,72 L3,72 z" fill="true" fill-opacity="0" stroke="green" stroke-width="0.1"/>
<path d="M3,72 L3,78 z" fill="true" fill-opacity="0" stroke="green" stroke-width="0.1"/>
<path d="M3,78 L6,78 z" fill="true" fill-opacity="0" stroke="green" stroke-width="0.1"/>
<path d="M6,78 L6,84 z" fill="true" fill-opacity="0" stroke="green" stroke-width="0.1"/>
<path d="M6,84 L3,84 z" fill="true" fill-opacity="0" stroke="green" stroke-width="0.1"/>
<path d="M3,84 L3,90 z" fill="true" fill-opacity="0" stroke="green" stroke-width="0.1"/>
<path d="M3,90 L6,90 z" fill="true" fill-opacity="0" stroke="green" stroke-width="0.1"/>
<path d="M6,90 L6,96 z" fill="true" fill-opacity="0" stroke="green" stroke-width="0.1"/>
<path d="M6,96 L3,96 z" fill="true" fill-opacity="0" stroke="green" stroke-width="0.1"/>
<path d="M3,96 L3,103 z" fill="true" fill-opacity="0" stroke="green" stroke-width="0.1"/>
<path d="M3,103 L3,106 z" fill="true" fill-opacity="0" stroke="green" stroke-width="0.1"/>
<path d="M3,106 L6,106 z" fill="true" fill-opacity="0" stroke="green" stroke-width="0.1"/>
<path d="M6,106 L13,106 z" fill="true" fill-opacity="0" stroke="green" stroke-width="0.1"/>
<path d="M13,106 L13,103 z" fill="true" fill-opacity="0" stroke="green" stroke-width="0.1"/>
<path d="M13,103 L19,103 z" fill="true" fill-opacity="0" stroke="green" stroke-width="0.1"/>
<path d="M19,103 L19,106 z" fill="true" fill-opacity="0" stroke="green" stroke-width="0.1"/>
<path d="M19,106 L25,106 z" fill="true" fill-opacity="0" stroke="green" stroke-width="0.1"/>
<path d="M25,106 L25,103 z" fill="true" fill-opacity="0" stroke="green" stroke-width="0.1"/>
<path d="M25,103 L31,103 z" fill="true" fill-opacity="0" stroke="green" stroke-width="0.1"/>
<path d="M31,103 L31,106 z" fill="true" fill-opacity="0" stroke="green" stroke-width="0.1"/>
<path d="M31,106 L37,106 z" fill="true" fill-opacity="0" stroke="green" stroke-width="0.1"/>
<path d="M37,106 L37,103 z" fill="true" fill-opacity="0" stroke="green" stroke-width="0.1"/>
<path d="M37,103 L43,103 z" fill="true" fill-opacity="0" stroke="green" stroke-width="0.1"/>
<path d="M43,103 L43,106 z" fill="true" fill-opacity="0" stroke="green" stroke-width="0.1"/>
<path d="M43,106 L50,106 z" fill="true" fill-opacity="0" stroke="green" stroke-width="0.1"/>
<path d="M50,106 L53,106 z" fill="true" fill-opacity="0" stroke="green" stroke-width="0.1"/>
<path d="M53,106 L53,103 z" fill="true" fill-opacity="0" stroke="green" stroke-width="0.1"/>
<path d="M53,103 L53,96 z" fill="true" fill-opacity="0" stroke="green" stroke-width="0.1"/>
<path d="M53,96 L50,96 z" fill="true" fill-opacity="0" stroke="green" stroke-width="0.1"/>
<path d="M50,96 L50,90 z" fill="true" fill-opacity="0" stroke="green" stroke-width="0.1"/>
<path d="M50,90 L53,90 z" fill="true" fill-opacity="0" stroke="green" stroke-width="0.1"/>
<path d="M53,90 L53,84 z" fill="true" fill-opacity="0" stroke="green" stroke-width="0.1"/>
<path d="M53,84 L50,84 z" fill="true" fill-opacity="0" stroke="green" stroke-width="0.1"/>
<path d="M50,84 L50,78 z" fill="true" fill-opacity="0" stroke="green" stroke-width="0.1"/>
<path d="M50,78 L53,78 z" fill="true" fill-opacity="0" stroke="green" stroke-width="0.1"/>
<path d="M53,78 L53,72 z" fill="true" fill-opacity="0" stroke="green" stroke-width="0.1"/>
<path d="M53,72 L50,72 z" fill="true" fill-opacity="0" stroke="green" stroke-width="0.1"/>
<path d="M50,72 L50,66 z" fill="true" fill-opacity="0" stroke="green" stroke-width="0.1"/>
<path d="M50,66 L53,66 z" fill="true" fill-opacity="0" stroke="green" stroke-width="0.1"/>
<path d="M53,66 L53,59 z" fill="true" fill-opacity="0" stroke="green" stroke-width="0.1"/>
<path d="M53,59 L53,56 z" fill="true" fill-opacity="0" stroke="green" stroke-width="0.1"/>
<path d="M53,56 L106,56 z" fill="true" fill-opacity="0.5" stroke="red" stroke-width="0.1"/>
<path d="M106,56 L103,56 z" fill="true" fill-opacity="0" stroke="green" stroke-width="0.1"/>
<path d="M103,56 L96,56 z" fill="true" fill-opacity="0" stroke="green" stroke-width="0.1"/>
<path d="M96,56 L96,59 z" fill="true" fill-opacity="0" stroke="green" stroke-width="0.1"/>
<path d="M96,59 L90,59 z" fill="true" fill-opacity="0" stroke="green" stroke-width="0.1"/>
<path d="M90,59 L90,56 z" fill="true" fill-opacity="0" stroke="green" stroke-width="0.1"/>
<path d="M90,56 L84,56 z" fill="true" fill-opacity="0" stroke="green" stroke-width="0.1"/>
<path d="M84,56 L84,59 z" fill="true" fill-opacity="0" stroke="green" stroke-width="0.1"/>
<path d="M84,59 L78,59 z" fill="true" fill-opacity="0" stroke="green" stroke-width="0.1"/>
<path d="M78,59 L78,56 z" fill="true" fill-opacity="0" stroke="green" stroke-width="0.1"/>
<path d="M78,56 L72,56 z" fill="true" fill-opacity="0" stroke="green" stroke-width="0.1"/>
<path d="M72,56 L72,59 z" fill="true" fill-opacity="0" stroke="green" stroke-width="0.1"/>
<path d="M72,59 L66,59 z" fill="true" fill-opacity="0" stroke="green" stroke-width="0.1"/>
<path d="M66,59 L66,56 z" fill="true" fill-opacity="0" stroke="green" stroke-width="0.1"/>
<path d="M66,56 L59,56 z" fill="true" fill-opacity="0" stroke="green" stroke-width="0.1"/>
<path d="M59,56 L56,56 z" fill="true" fill-opacity="0" stroke="green" stroke-width="0.1"/>
<path d="M56,56 L56,59 z" fill="true" fill-opacity="0" stroke="green" stroke-width="0.1"/>
<path d="M56,59 L56,66 z" fill="true" fill-opacity="0" stroke="green" stroke-width="0.1"/>
<path d="M56,66 L59,66 z" fill="true" fill-opacity="0" stroke="green" stroke-width="0.1"/>
<path d="M59,66 L59,72 z" fill="true" fill-opacity="0" stroke="green" stroke-width="0.1"/>
<path d="M59,72 L56,72 z" fill="true" fill-opacity="0" stroke="green" stroke-width="0.1"/>
<path d="M56,72 L56,78 z" fill="true" fill-opacity="0" stroke="green" stroke-width="0.1"/>
<path d="M56,78 L59,78 z" fill="true" fill-opacity="0" stroke="green" stroke-width="0.1"/>
<path d="M59,78 L59,84 z" fill="true" fill-opacity="0" stroke="green" stroke-width="0.1"/>
<path d="M59,84 L56,84 z" fill="true" fill-opacity="0" stroke="green" stroke-width="0.1"/>
<path d="M56,84 L56,90 z" fill="true" fill-opacity="0" stroke="green" stroke-width="0.1"/>
<path d="M56,90 L59,90 z" fill="true" fill-opacity="0" stroke="green" stroke-width="0.1"/>
<path d="M59,90 L59,96 z" fill="true" fill-opacity="0" stroke="green" stroke-width="0.1"/>
<path d="M59,96 L56,96 z" fill="true" fill-opacity="0" stroke="green" stroke-width="0.1"/>
<path d="M56,96 L56,103 z" fill="true" fill-opacity="0" stroke="green" stroke-width="0.1"/>
<path d="M56,103 L56,106 z" fill="true" fill-opacity="0" stroke="green" stroke-width="0.1"/>
<path d="M56,106 L59,106 z" fill="true" fill-opacity="0" stroke="green" stroke-width="0.1"/>
<path d="M59,106 L66,106 z" fill="true" fill-opacity="0" stroke="green" stroke-width="0.1"/>
<path d="M66,106 L66,103 z" fill="true" fill-opacity="0" stroke="green" stroke-width="0.1"/>
<path d="M66,103 L72,103 z" fill="true" fill-opacity="0" stroke="green" stroke-width="0.1"/>
<path d="M72,103 L72,106 z" fill="true" fill-opacity="0" stroke="green" stroke-width="0.1"/>
<path d="M72,106 L78,106 z" fill="true" fill-opacity="0" stroke="green" stroke-width="0.1"/>
<path d="M78,106 L78,103 z" fill="true" fill-opacity="0" stroke="green" stroke-width="0.1"/>
<path d="M78,103 L84,103 z" fill="true" fill-opacity="0" stroke="green" stroke-width="0.1"/>
<path d="M84,103 L84,106 z" fill="true" fill-opacity="0" stroke="green" stroke-width="0.1"/>
<path d="M84,106 L90,106 z" fill="true" fill-opacity="0" stroke="green" stroke-width="0.1"/>
<path d="M90,106 L90,103 z" fill="true" fill-opacity="0" stroke="green" stroke-width="0.1"/>
<path d="M90,103 L96,103 z" fill="true" fill-opacity="0" stroke="green" stroke-width="0.1"/>
<path d="M96,103 L96,106 z" fill="true" fill-opacity="0" stroke="green" stroke-width="0.1"/>
<path d="M96,106 L103,106 z" fill="true" fill-opacity="0" stroke="green" stroke-width="0.1"/>
<path d="M103,106 L106,106 z" fill="true" fill-opacity="0" stroke="green" stroke-width="0.1"/>
<path d="M106,106 L106,103 z" fill="true" fill-opacity="0" stroke="green" stroke-width="0.1"/>
<path d="M106,103 L106,96 z" fill="true" fill-opacity="0" stroke="green" stroke-width="0.1"/>
<path d="M106,96 L103,96 z" fill="true" fill-opacity="0" stroke="green" stroke-width="0.1"/>
<path d="M103,96 L103,90 z" fill="true" fill-opacity="0" stroke="green" stroke-width="0.1"/>
<path d="M103,90 L106,90 z" fill="true" fill-opacity="0" stroke="green" stroke-width="0.1"/>
<path d="M106,90 L106,84 z" fill="true" fill-opacity="0" stroke="green" stroke-width="0.1"/>
<path d="M106,84 L103,84 z" fill="true" fill-opacity="0" stroke="green" stroke-width="0.1"/>
<path d="M103,84 L103,78 z" fill="true" fill-opacity="0" stroke="green" stroke-width="0.1"/>
<path d="M103,78 L106,78 z" fill="true" fill-opacity="0" stroke="green" stroke-width="0.1"/>
<path d="M106,78 L106,72 z" fill="true" fill-opacity="0" stroke="green" stroke-width="0.1"/>
<path d="M106,72 L103,72 z" fill="true" fill-opacity="0" stroke="green" stroke-width="0.1"/>
<path d="M103,72 L103,66 z" fill="true" fill-opacity="0" stroke="green" stroke-width="0.1"/>
<path d="M103,66 L106,66 z" fill="true" fill-opacity="0" stroke="green" stroke-width="0.1"/>
<path d="M106,66 L106,59 z" fill="true" fill-opacity="0" stroke="green" stroke-width="0.1"/>
<path d="M106,59 L106,56 z" fill="true" fill-opacity="0" stroke="green" stroke-width="0.1"/>
<path d="M106,56 L149,109 z" fill="true" fill-opacity="0.5" stroke="red" stroke-width="0.1"/>
<path d="M149,109 L143,109 z" fill="true" fill-opacity="0" stroke="green" stroke-width="0.1"/>
<path d="M143,109 L143,112 z" fill="true" fill-opacity="0" stroke="green" stroke-width="0.1"/>
<path d="M143,112 L137,112 z" fill="true" fill-opacity="0" stroke="green" stroke-width="0.1"/>
<path d="M137,112 L137,109 z" fill="true" fill-opacity="0" stroke="green" stroke-width="0.1"/>
<path d="M137,109 L131,109 z" fill="true" fill-opacity="0" stroke="green" stroke-width="0.1"/>
<path d="M131,109 L131,112 z" fill="true" fill-opacity="0" stroke="green" stroke-width="0.1"/>
<path d="M131,112 L125,112 z" fill="true" fill-opacity="0" stroke="green" stroke-width="0.1"/>
<path d="M125,112 L125,109 z" fill="true" fill-opacity="0" stroke="green" stroke-width="0.1"/>
<path d="M125,109 L119,109 z" fill="true" fill-opacity="0" stroke="green" stroke-width="0.1"/>
<path d="M119,109 L119,112 z" fill="true" fill-opacity="0" stroke="green" stroke-width="0.1"/>
<path d="M119,112 L112,112 z" fill="true" fill-opacity="0" stroke="green" stroke-width="0.1"/>
<path d="M112,112 L112,119 z" fill="true" fill-opacity="0" stroke="green" stroke-width="0.1"/>
<path d="M112,119 L109,119 z" fill="true" fill-opacity="0" stroke="green" stroke-width="0.1"/>
<path d="M109,119 L109,125 z" fill="true" fill-opacity="0" stroke="green" stroke-width="0.1"/>
<path d="M109,125 L112,125 z" fill="true" fill-opacity="0" stroke="green" stroke-width="0.1"/>
<path d="M112,125 L112,131 z" fill="true" fill-opacity="0" stroke="green" stroke-width="0.1"/>
<path d="M112,131 L109,131 z" fill="true" fill-opacity="0" stroke="green" stroke-width="0.1"/>
<path d="M109,131 L109,137 z" fill="true" fill-opacity="0" stroke="green" stroke-width="0.1"/>
<path d="M109,137 L112,137 z" fill="true" fill-opacity="0" stroke="green" stroke-width="0.1"/>
<path d="M112,137 L112,143 z" fill="true" fill-opacity="0" stroke="green" stroke-width="0.1"/>
<path d="M112,143 L109,143 z" fill="true" fill-opacity="0" stroke="green" stroke-width="0.1"/>
<path d="M109,143 L109,149 z" fill="true" fill-opacity="0" stroke="green" stroke-width="0.1"/>
<path d="M109,149 L112,149 z" fill="true" fill-opacity="0" stroke="green" stroke-width="0.1"/>
<path d="M112,149 L112,156 z" fill="true" fill-opacity="0" stroke="green" stroke-width="0.1"/>
<path d="M112,156 L119,156 z" fill="true" fill-opacity="0" stroke="green" stroke-width="0.1"/>
<path d="M119,156 L119,159 z" fill="true" fill-opacity="0" stroke="green" stroke-width="0.1"/>
<path d="M119,159 L125,159 z" fill="true" fill-opacity="0" stroke="green" stroke-width="0.1"/>
<path d="M125,159 L125,156 z" fill="true" fill-opacity="0" stroke="green" stroke-width="0.1"/>
<path d="M125,156 L131,156 z" fill="true" fill-opacity="0" stroke="green" stroke-width="0.1"/>
<path d="M131,156 L131,159 z" fill="true" fill-opacity="0" stroke="green" stroke-width="0.1"/>
<path d="M131,159 L137,159 z" fill="true" fill-opacity="0" stroke="green" stroke-width="0.1"/>
<path d="M137,159 L137,156 z" fill="true" fill-opacity="0" stroke="green" stroke-width="0.1"/>
<path d="M137,156 L143,156 z" fill="true" fill-opacity="0" stroke="green" stroke-width="0.1"/>
<path d="M143,156 L143,159 z" fill="true" fill-opacity="0" stroke="green" stroke-width="0.1"/>
<path d="M143,159 L149,159 z" fill="true" fill-opacity="0" stroke="green" stroke-width="0.1"/>
<path d="M149,159 L149,156 z" fill="true" fill-opacity="0" stroke="green" stroke-width="0.1"/>
<path d="M149,156 L156,156 z" fill="true" fill-opacity="0" stroke="green" stroke-width="0.1"/>
<path d="M156,156 L156,149 z" fill="true" fill-opacity="0" stroke="green" stroke-width="0.1"/>
<path d="M156,149 L159,149 z" fill="true" fill-opacity="0" stroke="green" stroke-width="0.1"/>
<path d="M159,149 L159,143 z" fill="true" fill-opacity="0" stroke="green" stroke-width="0.1"/>
<path d="M159,143 L156,143 z" fill="true" fill-opacity="0" stroke="green" stroke-width="0.1"/>
<path d="M156,143 L156,137 z" fill="true" fill-opacity="0" stroke="green" stroke-width="0.1"/>
<path d="M156,137 L159,137 z" fill="true" fill-opacity="0" stroke="green" stroke-width="0.1"/>
<path d="M159,137 L159,131 z" fill="true" fill-opacity="0" stroke="green" stroke-width="0.1"/>
<path d="M159,131 L156,131 z" fill="true" fill-opacity="0" stroke="green" stroke-width="0.1"/>
<path d="M156,131 L156,125 z" fill="true" fill-opacity="0" stroke="green" stroke-width="0.1"/>
<path d="M156,125 L159,125 z" fill="true" fill-opacity="0" stroke="green" stroke-width="0.1"/>
<path d="M159,125 L159,119 z" fill="true" fill-opacity="0" stroke="green" stroke-width="0.1"/>
<path d="M159,119 L156,119 z" fill="true" fill-opacity="0" stroke="green" stroke-width="0.1"/>
<path d="M156,119 L156,112 z" fill="true" fill-opacity="0" stroke="green" stroke-width="0.1"/>
<path d="M156,112 L149,112 z" fill="true" fill-opacity="0" stroke="green" stroke-width="0.1"/>
<path d="M149,112 L149,109 z" fill="true" fill-opacity="0" stroke="green" stroke-width="0.1"/>
<path d="M149,109 L43,3 z" fill="true" fill-opacity="0.5" stroke="red" stroke-width="0.1"/>
<path d="M43,3 L37,3 z" fill="true" fill-opacity="0" stroke="green" stroke-width="0.1"/>
<path d="M37,3 L37,6 z" fill="true" fill-opacity="0" stroke="green" stroke-width="0.1"/>
<path d="M37,6 L31,6 z" fill="true" fill-opacity="0" stroke="green" stroke-width="0.1"/>
<path d="M31,6 L31,3 z" fill="true" fill-opacity="0" stroke="green" stroke-width="0.1"/>
<path d="M31,3 L25,3 z" fill="true" fill-opacity="0" stroke="green" stroke-width="0.1"/>
<path d="M25,3 L25,6 z" fill="true" fill-opacity="0" stroke="green" stroke-width="0.1"/>
<path d="M25,6 L19,6 z" fill="true" fill-opacity="0" stroke="green" stroke-width="0.1"/>
<path d="M19,6 L19,3 z" fill="true" fill-opacity="0" stroke="green" stroke-width="0.1"/>
<path d="M19,3 L13,3 z" fill="true" fill-opacity="0" stroke="green" stroke-width="0.1"/>
<path d="M13,3 L13,6 z" fill="true" fill-opacity="0" stroke="green" stroke-width="0.1"/>
<path d="M13,6 L6,6 z" fill="true" fill-opacity="0" stroke="green" stroke-width="0.1"/>
<path d="M6,6 L6,13 z" fill="true" fill-opacity="0" stroke="green" stroke-width="0.1"/>
<path d="M6,13 L3,13 z" fill="true" fill-opacity="0" stroke="green" stroke-width="0.1"/>
<path d="M3,13 L3,19 z" fill="true" fill-opacity="0" stroke="green" stroke-width="0.1"/>
<path d="M3,19 L6,19 z" fill="true" fill-opacity="0" stroke="green" stroke-width="0.1"/>
<path d="M6,19 L6,25 z" fill="true" fill-opacity="0" stroke="green" stroke-width="0.1"/>
<path d="M6,25 L3,25 z" fill="true" fill-opacity="0" stroke="green" stroke-width="0.1"/>
<path d="M3,25 L3,31 z" fill="true" fill-opacity="0" stroke="green" stroke-width="0.1"/>
<path d="M3,31 L6,31 z" fill="true" fill-opacity="0" stroke="green" stroke-width="0.1"/>
<path d="M6,31 L6,37 z" fill="true" fill-opacity="0" stroke="green" stroke-width="0.1"/>
<path d="M6,37 L3,37 z" fill="true" fill-opacity="0" stroke="green" stroke-width="0.1"/>
<path d="M3,37 L3,43 z" fill="true" fill-opacity="0" stroke="green" stroke-width="0.1"/>
<path d="M3,43 L6,43 z" fill="true" fill-opacity="0" stroke="green" stroke-width="0.1"/>
<path d="M6,43 L6,50 z" fill="true" fill-opacity="0" stroke="green" stroke-width="0.1"/>
<path d="M6,50 L13,50 z" fill="true" fill-opacity="0" stroke="green" stroke-width="0.1"/>
<path d="M13,50 L13,53 z" fill="true" fill-opacity="0" stroke="green" stroke-width="0.1"/>
<path d="M13,53 L19,53 z" fill="true" fill-opacity="0" stroke="green" stroke-width="0.1"/>
<path d="M19,53 L19,50 z" fill="true" fill-opacity="0" stroke="green" stroke-width="0.1"/>
<path d="M19,50 L25,50 z" fill="true" fill-opacity="0" stroke="green" stroke-width="0.1"/>
<path d="M25,50 L25,53 z" fill="true" fill-opacity="0" stroke="green" stroke-width="0.1"/>
<path d="M25,53 L31,53 z" fill="true" fill-opacity="0" stroke="green" stroke-width="0.1"/>
<path d="M31,53 L31,50 z" fill="true" fill-opacity="0" stroke="green" stroke-width="0.1"/>
<path d="M31,50 L37,50 z" fill="true" fill-opacity="0" stroke="green" stroke-width="0.1"/>
<path d="M37,50 L37,53 z" fill="true" fill-opacity="0" stroke="green" stroke-width="0.1"/>
<path d="M37,53 L43,53 z" fill="true" fill-opacity="0" stroke="green" stroke-width="0.1"/>
<path d="M43,53 L43,50 z" fill="true" fill-opacity="0" stroke="green" stroke-width="0.1"/>
<path d="M43,50 L50,50 z" fill="true" fill-opacity="0" stroke="green" stroke-width="0.1"/>
<path d="M50,50 L50,43 z" fill="true" fill-opacity="0" stroke="green" stroke-width="0.1"/>
<path d="M50,43 L53,43 z" fill="true" fill-opacity="0" stroke="green" stroke-width="0.1"/>
<path d="M53,43 L53,37 z" fill="true" fill-opacity="0" stroke="green" stroke-width="0.1"/>
<path d="M53,37 L50,37 z" fill="true" fill-opacity="0" stroke="green" stroke-width="0.1"/>
<path d="M50,37 L50,31 z" fill="true" fill-opacity="0" stroke="green" stroke-width="0.1"/>
<path d="M50,31 L53,31 z" fill="true" fill-opacity="0" stroke="green" stroke-width="0.1"/>
<path d="M53,31 L53,25 z" fill="true" fill-opacity="0" stroke="green" stroke-width="0.1"/>
<path d="M53,25 L50,25 z" fill="true" fill-opacity="0" stroke="green" stroke-width="0.1"/>
<path d="M50,25 L50,19 z" fill="true" fill-opacity="0" stroke="green" stroke-width="0.1"/>
<path d="M50,19 L53,19 z" fill="true" fill-opacity="0" stroke="green" stroke-width="0.1"/>
<path d="M53,19 L53,13 z" fill="true" fill-opacity="0" stroke="green" stroke-width="0.1"/>
<path d="M53,13 L50,13 z" fill="true" fill-opacity="0" stroke="green" stroke-width="0.1"/>
<path d="M50,13 L50,6 z" fill="true" fill-opacity="0" stroke="green" stroke-width="0.1"/>
<path d="M50,6 L43,6 z" fill="true" fill-opacity="0" stroke="green" stroke-width="0.1"/>
<path d="M43,6 L43,3 z" fill="true" fill-opacity="0" stroke="green" stroke-width="0.1"/>
</svg>